<?xml version="1.0" encoding="UTF-8" standalone="no"?>
<svg
   enable-background="new 0 0 1024 1024"
   height="32"
   id="Layer_1"
   version="1.1"
   viewBox="0 0 32 32"
   width="32"
   xml:space="preserve"
   sodipodi:docname="instagram.svg"
   inkscape:version="1.4.2 (f4327f4, 2025-05-13)"
   xmlns:inkscape="http://www.inkscape.org/namespaces/inkscape"
   xmlns:sodipodi="http://sodipodi.sourceforge.net/DTD/sodipodi-0.dtd"
   xmlns="http://www.w3.org/2000/svg"
   xmlns:svg="http://www.w3.org/2000/svg"><defs
     id="defs4" /><sodipodi:namedview
     id="namedview4"
     pagecolor="#ffffff"
     bordercolor="#000000"
     borderopacity="0.25"
     inkscape:showpageshadow="2"
     inkscape:pageopacity="0.0"
     inkscape:pagecheckerboard="0"
     inkscape:deskcolor="#d1d1d1"
     inkscape:zoom="25.46875"
     inkscape:cx="15.980368"
     inkscape:cy="16"
     inkscape:window-width="1920"
     inkscape:window-height="1017"
     inkscape:window-x="1072"
     inkscape:window-y="210"
     inkscape:window-maximized="1"
     inkscape:current-layer="Layer_1" /><g
     id="g4"
     transform="matrix(0.02148434,0,0,0.02148438,5.0000108,4.9999885)"><g
       id="g3"><path
         clip-rule="evenodd"
         d="m 512.305,0.122 c 70.856,0 141.717,-0.328 212.571,0.094 66.662,0.398 129.269,15.6 183.515,56.125 70.84,52.923 107.091,125.214 113.838,212.445 2.376,30.7 1.637,61.667 1.677,92.512 0.161,119.619 0.072,239.239 0.059,358.86 0,48.856 -6.799,96.557 -27.473,141.232 -41.938,90.623 -115.091,140.165 -211.608,157.334 -20.125,3.579 -40.886,4.916 -61.359,4.977 -141.333,0.417 -282.669,0.321 -424.003,0.174 C 226.027,1023.8 158.809,1004.392 101.528,956.709 43.331,908.27 12.621,844.916 3.068,770.638 1.42,757.827 0.411,744.833 0.399,731.924 0.261,583.352 -0.636,434.771 0.82,286.214 1.616,205.048 28.642,133.084 89.064,76.379 139.183,29.347 200.104,4.772 267.803,2.367 349.207,-0.525 430.794,1.682 512.302,1.682 c 10e-4,-0.521 10e-4,-1.041 0.003,-1.56 z m -0.8,929.247 c 68.18,0 136.358,0.274 204.534,-0.188 17.83,-0.121 35.919,-1.007 53.414,-4.171 66.827,-12.081 117.634,-45.6 144.26,-110.67 13.528,-33.055 17.946,-68.524 18.522,-102.876 2.237,-133.271 0.976,-266.602 0.819,-399.911 -0.018,-14.442 -0.174,-29.045 -2.217,-43.295 C 921.674,204.27 893.934,151.823 835.045,119.929 802.176,102.128 766.494,95.407 729.405,95.395 586.574,95.353 443.743,95.311 300.913,95.482 c -12.908,0.016 -25.93,0.73 -38.702,2.525 -72.746,10.214 -126.329,46.066 -153.145,116.6 -10.822,28.463 -14.28,58.288 -14.286,88.569 -0.021,139.403 -0.155,278.803 0.183,418.208 0.041,17.055 1.313,34.355 4.366,51.114 13.543,74.355 55.004,125.461 128.843,146.011 24.606,6.845 50.909,9.868 76.522,10.384 68.914,1.384 137.871,0.471 206.811,0.476 z"
         fill-rule="evenodd"
         id="path1" /><path
         clip-rule="evenodd"
         d="M 775.903,510.369 C 775.839,656.146 656.898,774.716 511.082,774.36 365.211,774.007 247.737,656.264 247.652,510.331 247.567,364.56 366.331,245.98 512.255,246.139 c 144.666,0.156 263.713,119.466 263.648,264.23 z M 511.878,679.188 c 93.007,0.071 169.609,-76.475 169.448,-169.325 -0.161,-92.206 -76.568,-168.757 -168.818,-169.132 -92.873,-0.377 -169.438,75.935 -169.635,169.074 -0.196,93.272 75.669,169.309 169.005,169.383 z"
         fill-rule="evenodd"
         id="path2" /><path
         clip-rule="evenodd"
         d="m 785.693,299.338 c -33.019,-0.295 -59.047,-26.717 -58.941,-59.832 0.104,-33.491 26.785,-59.75 60.471,-59.52 32.644,0.226 59.246,27.168 59.147,59.904 -0.1,33.2 -27.196,59.747 -60.677,59.448 z"
         fill-rule="evenodd"
         id="path3" /></g></g></svg>
