<?xml version="1.0" encoding="UTF-8" standalone="no"?>
<svg
   enable-background="new 0 0 512 512"
   id="Layer_1"
   version="1.1"
   viewBox="0 0 32 32"
   xml:space="preserve"
   sodipodi:docname="whatsapp.svg"
   width="32"
   height="32"
   inkscape:version="1.4.2 (f4327f4, 2025-05-13)"
   xmlns:inkscape="http://www.inkscape.org/namespaces/inkscape"
   xmlns:sodipodi="http://sodipodi.sourceforge.net/DTD/sodipodi-0.dtd"
   xmlns="http://www.w3.org/2000/svg"
   xmlns:svg="http://www.w3.org/2000/svg"><defs
     id="defs2" /><sodipodi:namedview
     id="namedview2"
     pagecolor="#ffffff"
     bordercolor="#000000"
     borderopacity="0.25"
     inkscape:showpageshadow="2"
     inkscape:pageopacity="0.0"
     inkscape:pagecheckerboard="0"
     inkscape:deskcolor="#d1d1d1"
     inkscape:zoom="25.46875"
     inkscape:cx="15.980368"
     inkscape:cy="16"
     inkscape:window-width="1920"
     inkscape:window-height="1017"
     inkscape:window-x="1072"
     inkscape:window-y="210"
     inkscape:window-maximized="1"
     inkscape:current-layer="Layer_1" /><g
     id="g2"
     transform="matrix(0.04435843,0,0,0.04402177,4.5209289,4.6413442)"><path
       d="M 10.8,507.9 C 17.7,487.2 24.2,467.8 30.7,448.4 37.2,429.2 43,409.7 50.4,390.8 54.2,381.2 53,374 48.2,365 22,316.4 14.2,264.3 23.3,210.1 31,164.2 50.5,123.6 82,89.1 133.9,32.4 198.7,5.2 275.3,8.4 c 56.1,2.3 105.7,22.8 148,59.9 39.4,34.5 65.1,77.4 77,128.4 9.6,41.1 8.5,82 -3.3,122.5 -15,51.3 -43.7,93.6 -86.4,125.8 -59.3,44.8 -125.8,58.7 -198.3,44.6 -21.8,-4.2 -42.6,-12 -62.2,-22.6 -3.2,-1.7 -5.9,-2.1 -9.4,-0.9 -37.2,12 -74.5,23.9 -111.7,35.8 -5.6,1.8 -11.3,3.7 -18.2,6 z m 63.3,-62.7 c 2,-0.5 2.9,-0.7 3.8,-1 23.3,-7.4 46.6,-14.9 70,-22.1 2.2,-0.7 5.2,-0.1 7.3,0.9 10.1,5 19.8,11 30.2,15.4 42.8,18.1 86.9,21 131.5,8.6 53.2,-14.9 94,-46.6 121.9,-94.5 23.9,-41 32.1,-85.3 24.7,-131.9 C 454.1,161.3 423.7,114.7 373.4,81.6 329.8,53 281.8,43.3 230.6,51.4 c -44.1,7 -81.8,27.1 -112.9,59.3 -26.7,27.6 -44.6,60.2 -52.4,97.7 -11.1,53.7 -2.9,104.5 26.9,150.8 6,9.3 5.8,16.4 2.2,25.9 -7.3,19.5 -13.4,39.4 -20.3,60.1 z"
       id="path1" /><path
       d="m 389.3,321.8 c -0.3,19.3 -9.4,34 -27.8,43.2 -18.1,9 -36.5,11.3 -55.4,3.9 -17,-6.7 -34.2,-13.2 -50.6,-21.3 -21.6,-10.7 -39.3,-26.7 -55.5,-44.4 -17.9,-19.6 -33.1,-41.4 -45.6,-64.7 -8.9,-16.5 -14.3,-34 -12.4,-53.2 2,-20.4 11.5,-36.7 27.5,-49 3.2,-2.4 8,-3.5 12.1,-3.9 5.3,-0.4 10.6,0.4 15.9,0.8 4.4,0.4 6.8,3.5 8.3,7.1 3.9,9.6 7.4,19.2 11.1,28.9 2.5,6.5 4.4,13.3 7.4,19.6 3.7,7.8 1.4,14.3 -3.4,20.3 -4.1,5.1 -8.4,10 -13.1,14.4 -3.9,3.7 -4.6,7.5 -2,12 11.5,20.5 25.5,38.9 44,53.8 12.2,9.8 25.7,17.1 39.7,23.9 4.1,2 8.1,1.7 11.3,-2 6.9,-7.9 13.9,-15.7 20.7,-23.7 4.4,-5.1 6.6,-6.1 12.5,-3.1 17.1,8.6 34,17.5 51,26.4 4,2.2 5,5.8 4.3,11 z"
       id="path2" /></g></svg>
